<?xml version="1.0" encoding="utf-8"?>
<!-- Generator: Adobe Illustrator 22.1.0, SVG Export Plug-In . SVG Version: 6.00 Build 0)  -->
<svg version="1.1" id="Layer_1" xmlns="http://www.w3.org/2000/svg" xmlns:xlink="http://www.w3.org/1999/xlink" x="0px" y="0px"
	 viewBox="0 0 778 768" style="enable-background:new 0 0 778 768;" xml:space="preserve">
<style type="text/css">
	.st0{fill:#516266;}
	.st1{fill:#A4A5A5;}
	.st2{fill:#A4E877;}
	.st3{fill:#89CE5B;}
	.st4{fill:#DFFF84;}
	.st5{fill:#D3DA5D;}
	.st6{fill:#FFFFFF;}
	.st7{fill:#6F706F;}
	.st8{fill:none;stroke:#666666;stroke-width:2;stroke-linecap:round;stroke-miterlimit:10;}
	.st9{fill:none;}
	.st10{fill:#666666;}
	.st11{clip-path:url(#XMLID_3_);}
</style>
<rect x="-1212" y="1" class="st0" width="748" height="748"/>
<ellipse class="st1" cx="-1731" cy="717" rx="100" ry="19"/>
<g>
	<g>
		<path class="st2" d="M-763.1,107.9c-11.6-24.6-17.7-29.2-30.3-43.8c-14.5-16.7-37.9-21.1-51.8-13.4c-13.7,7.6-10.1,34.1-32.9,31.7
			c-11-1.2-15.2-39-58.1-26.8c-11.2,3.2-17.7,17.1-22.7,29.2c-10.6,25.6-11.1,29.5-25.3,46.3c-11.4,13.4-41.1,7.8-49.3-3.7
			c-13.9-19.4-37.2-24.8-45.5,7.3c-2.5,9.7-22.7-21.9-35.4-21.9c-14,0-31.5,24.9-32.9,26.8c-14.3,19.4-6.4,45.7,5.1,63.3
			c3.9,6,14.9,15,27.8,24.4c10.1,7.3,17.7,9.7,27.8,14.6c16.3,7.9,36.3,14.4,48,17.1c32.9,7.3,27,6.6,73.3,12.2
			c27,3.3,38.8,16.8,48,31.7c7.6,12.2,12,29.4,12.6,41.4c1.3,23.1-22.3,29-44.2,76.7c-8.2,17.8-15,37-12.6,60.9
			c3.8,37.8,29.1,76.7,36.7,86.5c14.9,19.1,32.3,35.5,63.2,48.7c22.7,9.7,63.2,9.5,78.4,7.3c72.1-10.6,106.9-30.6,131.4-39
			c43-14.6,121.9-58.6,118.8-73.1c-1.3-6-45.5-7.3-87.2-13.4c-45.5-6.6-48.8-6.9-63.2-12.2c-37.4-13.7-57.4-45.2-65.7-58.5
			c-6.7-10.6-44.8-57.4-22.7-102.3c11.4-23.1,17.6-24.7,30.3-60.9c6.2-17.5,18.9-53.8,7.6-92.6
			C-740.9,149.1-741.1,154.5-763.1,107.9z"/>
		<ellipse class="st3" cx="-755.5" cy="163.9" rx="10.1" ry="12.2"/>
		<ellipse class="st3" cx="-758.1" cy="202.9" rx="7.6" ry="7.3"/>
		<ellipse class="st3" cx="-740.4" cy="190.7" rx="7.6" ry="7.3"/>
		<ellipse class="st3" cx="-744.2" cy="226" rx="8.8" ry="8.5"/>
		<ellipse class="st3" cx="-765.6" cy="234.6" rx="5.1" ry="4.9"/>
		<ellipse class="st3" cx="-749.2" cy="250.4" rx="6.3" ry="6.1"/>
		<ellipse class="st3" cx="-753" cy="268.7" rx="7.6" ry="7.3"/>
		<ellipse class="st3" cx="-764.4" cy="255.3" rx="3.8" ry="3.7"/>
		<ellipse class="st3" cx="-778.3" cy="285.7" rx="7.6" ry="7.3"/>
		<ellipse class="st3" cx="-775.7" cy="302.8" rx="5.1" ry="4.9"/>
		<ellipse class="st3" cx="-760.6" cy="290.6" rx="7.6" ry="7.3"/>
		<ellipse class="st3" cx="-739.1" cy="484.2" rx="8.8" ry="8.5"/>
		<ellipse class="st3" cx="-677.2" cy="497.6" rx="5.1" ry="4.9"/>
		<ellipse class="st3" cx="-668.3" cy="515.9" rx="8.8" ry="8.5"/>
		<ellipse class="st3" cx="-718.9" cy="481.8" rx="6.3" ry="6.1"/>
		<ellipse class="st3" cx="-731.5" cy="464.7" rx="6.3" ry="6.1"/>
		<ellipse class="st3" cx="-702.4" cy="490.3" rx="7.6" ry="7.3"/>
		<ellipse class="st3" cx="-723.9" cy="498.9" rx="6.3" ry="6.1"/>
		<ellipse class="st3" cx="-696.1" cy="511" rx="6.3" ry="6.1"/>
		<ellipse class="st3" cx="-639.3" cy="504.9" rx="5.1" ry="4.9"/>
		<ellipse class="st3" cx="-627.9" cy="515.9" rx="6.3" ry="6.1"/>
		<ellipse class="st3" cx="-646.8" cy="517.1" rx="5.1" ry="4.9"/>
		<ellipse class="st3" cx="-612.7" cy="508.6" rx="6.3" ry="6.1"/>
		<ellipse class="st3" cx="-602.6" cy="518.3" rx="3.8" ry="3.7"/>
	</g>
	<g>
		<g>
			<path class="st2" d="M-915.3,566.2c24.3,107,36.3,122.6,55,119.8c24.2-3.7,28-72.3,34.3-153.2"/>
		</g>
		<path class="st2" d="M-877.1,681.6l-39.8,7c-3.4,0.6-6.7-1.6-7.3-4.9l-0.5-2.4c-0.6-3.3,1.7-6.5,5.1-7.1l39.8-7
			c3.4-0.6,6.7,1.6,7.3,4.9l0.5,2.4C-871.4,677.8-873.7,681-877.1,681.6z"/>
		<path class="st2" d="M-866.9,686.6l-35,19.5c-3,1.7-6.9,0.7-8.6-2.2l-1.3-2.1c-1.7-2.9-0.7-6.6,2.3-8.3l35-19.5
			c3-1.7,6.9-0.7,8.6,2.2l1.3,2.1C-862.9,681.2-863.9,685-866.9,686.6z"/>
		<path class="st2" d="M-852.4,683.7l-24.1,31.3c-2.1,2.7-6.1,3.3-8.8,1.3l-2-1.5c-2.8-2-3.4-5.8-1.3-8.5l24.1-31.3
			c2.1-2.7,6.1-3.3,8.8-1.3l2,1.5C-850.9,677.1-850.3,681-852.4,683.7z"/>
	</g>
	<g>
		<g>
			<path class="st2" d="M-821.8,580.9c24.3,107,36.3,122.6,55,119.8c24.2-3.7,28-72.3,34.3-153.2"/>
		</g>
		<path class="st2" d="M-783.6,696.2l-39.8,7c-3.4,0.6-6.7-1.6-7.3-4.9l-0.5-2.4c-0.6-3.3,1.7-6.5,5.1-7.1l39.8-7
			c3.4-0.6,6.7,1.6,7.3,4.9l0.5,2.4C-777.9,692.4-780.1,695.6-783.6,696.2z"/>
		<path class="st2" d="M-773.4,701.3l-35,19.5c-3,1.7-6.9,0.7-8.6-2.2l-1.3-2.1c-1.7-2.9-0.7-6.6,2.3-8.3l35-19.5
			c3-1.7,6.9-0.7,8.6,2.2l1.3,2.1C-769.4,695.8-770.4,699.6-773.4,701.3z"/>
		<path class="st2" d="M-758.9,698.3l-24.1,31.3c-2.1,2.7-6.1,3.3-8.8,1.3l-2-1.5c-2.8-2-3.4-5.8-1.3-8.5l24.1-31.3
			c2.1-2.7,6.1-3.3,8.8-1.3l2,1.5C-757.4,691.7-756.8,695.6-758.9,698.3z"/>
	</g>
	<g>
		<path class="st2" d="M-891.8,349.6c-55-9.7-141.6-22.7-145-7.3c-3.2,14.5,68.9,48.8,121.4,71.8"/>
		<path class="st2" d="M-1008.7,344.3L-1008.7,344.3c-3.5-0.3-6-3.3-5.7-6.6l2.4-26.2c0.3-3.3,3.4-5.8,6.9-5.5h0
			c3.5,0.3,6,3.3,5.7,6.6l-2.4,26.2C-1002.1,342.1-1005.2,344.6-1008.7,344.3z"/>
		<path class="st2" d="M-1013.6,340.1L-1013.6,340.1c-2.1,2-5.6,2-7.7,0l-24.5-23.6c-2.1-2-2.1-5.4,0-7.4l0,0c2.1-2,5.6-2,7.7,0
			l24.5,23.6C-1011.5,334.7-1011.5,338.1-1013.6,340.1z"/>
		<path class="st2" d="M-1020.1,345.3L-1020.1,345.3c-1.5,2.5-4.8,3.4-7.4,1.9l-30-16.7c-2.6-1.4-3.5-4.7-2-7.1v0
			c1.5-2.5,4.8-3.4,7.4-1.9l30,16.7C-1019.5,339.6-1018.6,342.8-1020.1,345.3z"/>
		<path class="st2" d="M-1022.4,350.2L-1022.4,350.2c-0.5,2.8-3.3,4.8-6.3,4.3l-34.1-5.6c-2.9-0.5-4.9-3.2-4.4-6v0
			c0.5-2.8,3.3-4.8,6.3-4.3l34.1,5.6C-1023.9,344.6-1021.9,347.4-1022.4,350.2z"/>
	</g>
	<path class="st4" d="M-907.2,285.7c9.6,0,26.2,0,35.4-2.4c27.8-7.3,45.5-29.2,45.5-29.2s-0.7,83.6,2.5,109.6
		c2.9,23.4,16.3,69.3,20.2,92.6c4.9,29.2,12.6,87.7-17.7,116.9c-9.9,9.6-41.6,8.1-55.6,7.3c-13-0.7-28.8-11.9-37.9-21.9
		c-17.7-19.5-32.9-51.2-35.4-75.5c-3.6-34.3,7.6-53.6,17.7-70.6c3.7-6.2,15.1-22.1,20.2-29.2c6.2-8.6,17.7-25.3,17.7-36.5
		c0-12.2-6.9-29.6-10.1-39c-2.5-7.3-11.8-21.5-15.2-24.4C-920.1,283-917.3,285.7-907.2,285.7z"/>
	<g>
		<path class="st5" d="M-826.3,285.3l-81.2,16c1.2,2.3,2.3,4.5,2.9,6.3c0.4,1.1,0.8,2.3,1.3,3.6l77.1-12.1
			C-826.3,294.4-826.3,289.7-826.3,285.3z"/>
		<path class="st5" d="M-825.7,325.9l-70.4,6.4c0.9,4,1.5,7.9,1.5,11.4l69.4-1.2C-825.4,337.3-825.6,331.7-825.7,325.9z"/>
		<path class="st5" d="M-820,384.7c-1.4-6.6-2.6-12.7-3.4-18l-76.1-3.9c-2.4,4.7-5.2,9.3-7.9,13.4L-820,384.7z"/>
		<path class="st5" d="M-810.5,424.6c-1.1-4.7-2.3-9.5-3.5-14.3L-924.2,400c-3.5,5-6.7,9.7-8.3,12.4c-2.3,3.9-4.7,7.9-6.9,12.2
			H-810.5z"/>
		<path class="st5" d="M-803.6,453.8c-0.5-2.8-1.1-6-1.8-9.4l-144,6.4c-1.1,6.4-1.6,13.4-1.4,21.3l148.1-12.6
			C-802.9,457.5-803.3,455.6-803.6,453.8z"/>
		<path class="st5" d="M-935.5,528l136.4-14.8c0.4-7.5,0.2-15-0.2-22.2l-146.9,10.7C-943.6,510.4-939.9,519.4-935.5,528z"/>
		<path class="st5" d="M-914.8,558.5c4,4.4,9.3,9.1,15.1,12.9l87.4-9.5c4.5-7.2,7.6-15.2,9.7-23.8l-121.4,8.9
			C-921,551.2-917.9,555.1-914.8,558.5z"/>
	</g>
	<path class="st2" d="M-633.5,326.2l-1.8-5.4c-0.5-1.5-2.1-2.3-3.6-1.8l-22.4,7.1l14.7-13c1.2-1,1.3-2.8,0.2-3.9l-4-4.2
		c-1.1-1.1-2.9-1.2-4.1-0.2l-23,20.3l-4.5-22.4c-0.5-2.6-3.2-4.4-5.9-3.8l-1.4,0.3c-2.7,0.5-4.5,3.1-4,5.7l4.3,21.4
		c-20.4,2.6-56.8,10.4-96.9,21.6l13.8,71.6c50.9-30.5,84.9-53.6,101.9-69.3c0,0,0,0,0.1,0l31.7-1.9c1.6-0.1,2.8-1.4,2.7-3l-0.4-5.6
		c-0.1-1.5-1.5-2.7-3.1-2.6l-20.5,1.3c0.3-0.4,0.5-0.8,0.7-1.2l23.7-7.5C-633.8,329.2-633,327.6-633.5,326.2z"/>
	<g>
		<ellipse class="st6" cx="-823.8" cy="105.5" rx="32.9" ry="31.7"/>
	</g>
	<ellipse class="st7" cx="-813.7" cy="106.7" rx="10.1" ry="13.4"/>
	<g>
		<ellipse class="st6" cx="-919.8" cy="98.2" rx="32.9" ry="31.7"/>
	</g>
	<ellipse class="st7" cx="-914.8" cy="101.8" rx="10.1" ry="13.4"/>
	
		<ellipse transform="matrix(0.994 -0.1091 0.1091 0.994 -21.1556 -114.2008)" class="st7" cx="-1054.3" cy="136.2" rx="4.7" ry="8.7"/>
	
		<ellipse transform="matrix(0.5967 -0.8025 0.8025 0.5967 -558.1009 -842.8029)" class="st7" cx="-1117.5" cy="133.8" rx="8.8" ry="4.6"/>
	<path class="st8" d="M-1139.7,202.9c34.7-13.8,98.6,7.3,146.6,12.2c40.2,4.1,116.3,14.6,139-29.2"/>
	<path class="st9" d="M-1004.6,138.7c2.7,0.7,5.1,2.1,7.5,3.5c3.1,1.8,6.2,3.6,8.8,5.9s4.9,5.2,5.9,8.5"/>
	<path class="st9" d="M-990,136.8c3.5,1.6,6.7,3.6,9.7,6c2.6,2.1,5.1,4.5,6.3,7.6"/>
	<path class="st3" d="M-1002.9,138.9c12.8,4.4,23.7,16.9,27.9,31.8"/>
	<path class="st3" d="M-986.4,135.1c13.1,3.5,25,15.1,30.3,29.7"/>
	<path class="st10" d="M-873.3,175.7c1.8,0.2,19.9,1.9,30.7,15.5c1.3,1.6,2.6,3.6,3.8,5.9"/>
</g>
<image style="overflow:visible;" width="1600" height="2400" xlink:href="../../Pictures/logo-baru/AdobeColor-22_38.jpeg"  transform="matrix(0.3038 0 0 0.2729 -1917 -83)">
</image>
<g>
	<defs>
		<rect id="XMLID_1_" y="1" width="767" height="767"/>
	</defs>
	<clipPath id="XMLID_3_">
		<use xlink:href="#XMLID_1_"  style="overflow:visible;"/>
	</clipPath>
	<g class="st11">
		<g>
			<path class="st2" d="M681.7,95.9C661.5,56,650.9,48.4,629,24.7C603.8-2.5,563-9.5,538.8,2.9c-23.9,12.3-17.6,55.4-57.2,51.4
				c-19.1-1.9-26.4-63.3-101.1-43.5C361.1,16,349.8,38.5,341,58.3c-18.5,41.5-19.2,47.9-44,75.1c-19.8,21.7-71.5,12.6-85.7-5.9
				c-24.3-31.6-64.6-40.3-79.1,11.9c-4.4,15.8-39.6-35.6-61.6-35.6c-24.4,0-54.7,40.4-57.2,43.5c-25,31.5-11.2,74.3,8.8,102.8
				c6.8,9.7,25.8,24.4,48.4,39.5c17.6,11.9,30.8,15.8,48.4,23.7c28.4,12.8,63.1,23.4,83.5,27.7c57.2,11.9,46.9,10.7,127.5,19.8
				c47,5.3,67.5,27.3,83.5,51.4c13.2,19.8,20.8,47.8,22,67.2c2.2,37.6-38.7,47.1-76.9,124.6c-14.2,28.8-26.2,60-22,98.9
				c6.6,61.3,50.6,124.6,63.8,140.4c25.8,31,56.1,57.6,109.9,79.1c39.6,15.8,109.9,15.5,136.3,11.9c125.3-17.2,186-49.7,228.6-63.3
				c74.7-23.7,212-95.2,206.7-118.6c-2.2-9.7-79.1-11.9-151.7-21.7c-79.1-10.8-85-11.2-109.9-19.8c-65-22.2-99.8-73.4-114.3-94.9
				c-11.7-17.2-78-93.1-39.6-166.1c19.8-37.6,30.6-40,52.8-98.9c10.7-28.5,32.9-87.4,13.2-150.3C720.4,162.8,720,171.5,681.7,95.9z"
				/>
			<ellipse class="st3" cx="694.9" cy="186.8" rx="17.6" ry="19.8"/>
			<ellipse class="st3" cx="690.5" cy="250.1" rx="13.2" ry="11.9"/>
			<ellipse class="st3" cx="721.3" cy="230.3" rx="13.2" ry="11.9"/>
			<ellipse class="st3" cx="714.7" cy="287.6" rx="15.4" ry="13.8"/>
			<ellipse class="st3" cx="677.3" cy="301.5" rx="8.8" ry="7.9"/>
			<ellipse class="st3" cx="705.9" cy="327.2" rx="11" ry="9.9"/>
			<ellipse class="st3" cx="699.3" cy="356.8" rx="13.2" ry="11.9"/>
			<ellipse class="st3" cx="679.5" cy="335.1" rx="6.6" ry="5.9"/>
			<ellipse class="st3" cx="655.3" cy="384.5" rx="13.2" ry="11.9"/>
			<ellipse class="st3" cx="659.7" cy="412.2" rx="8.8" ry="7.9"/>
			<ellipse class="st3" cx="686.1" cy="392.4" rx="13.2" ry="11.9"/>
			<ellipse class="st3" cx="723.5" cy="706.8" rx="15.4" ry="13.8"/>
			<ellipse class="st3" cx="831.2" cy="728.5" rx="8.8" ry="7.9"/>
			<ellipse class="st3" cx="846.6" cy="758.2" rx="15.4" ry="13.8"/>
			<ellipse class="st3" cx="758.7" cy="702.8" rx="11" ry="9.9"/>
			<ellipse class="st3" cx="736.7" cy="675.2" rx="11" ry="9.9"/>
			<ellipse class="st3" cx="787.3" cy="716.7" rx="13.2" ry="11.9"/>
			<ellipse class="st3" cx="749.9" cy="730.5" rx="11" ry="9.9"/>
			<ellipse class="st3" cx="798.2" cy="750.3" rx="11" ry="9.9"/>
			<ellipse class="st3" cx="897.2" cy="740.4" rx="8.8" ry="7.9"/>
			<ellipse class="st3" cx="917" cy="758.2" rx="11" ry="9.9"/>
			<ellipse class="st3" cx="884" cy="760.2" rx="8.8" ry="7.9"/>
			<ellipse class="st3" cx="943.3" cy="746.3" rx="11" ry="9.9"/>
			<ellipse class="st3" cx="960.9" cy="762.1" rx="6.6" ry="5.9"/>
		</g>
		<g>
			<g>
				<path class="st2" d="M417,839.9c42.2,173.6,63.2,199.1,95.6,194.5c42.1-6,48.6-117.4,59.6-248.7"/>
			</g>
			<path class="st2" d="M483.5,1027.2l-69.2,11.3c-5.9,1-11.7-2.6-12.8-8l-0.8-3.9c-1.1-5.3,2.9-10.5,8.9-11.5l69.2-11.3
				c5.9-1,11.7,2.6,12.8,8l0.8,3.9C493.4,1021,489.4,1026.2,483.5,1027.2z"/>
			<path class="st2" d="M501.1,1035.4l-60.9,31.6c-5.2,2.7-12,1.1-15-3.6l-2.2-3.4c-3-4.7-1.2-10.8,4-13.5l60.9-31.6
				c5.2-2.7,12-1.1,15,3.6l2.2,3.4C508.2,1026.6,506.4,1032.7,501.1,1035.4z"/>
			<path class="st2" d="M526.4,1030.5l-42,50.8c-3.6,4.4-10.5,5.3-15.4,2l-3.5-2.4c-4.9-3.2-5.9-9.5-2.3-13.8l42-50.8
				c3.6-4.4,10.5-5.3,15.4-2l3.5,2.4C529,1019.9,530,1026.2,526.4,1030.5z"/>
		</g>
		<g>
			<g>
				<path class="st2" d="M579.6,863.6c42.2,173.6,63.2,199.1,95.6,194.5c42.1-6,48.6-117.4,59.6-248.7"/>
			</g>
			<path class="st2" d="M646.1,1050.9l-69.2,11.3c-5.9,1-11.7-2.6-12.8-8l-0.8-3.9c-1.1-5.3,2.9-10.5,8.9-11.5l69.2-11.3
				c5.9-1,11.7,2.6,12.8,8l0.8,3.9C656.1,1044.7,652.1,1049.9,646.1,1050.9z"/>
			<path class="st2" d="M663.8,1059.1l-60.9,31.6c-5.2,2.7-12,1.1-15-3.6l-2.2-3.4c-3-4.7-1.2-10.8,4-13.5l60.9-31.6
				c5.2-2.7,12-1.1,15,3.6l2.2,3.4C670.9,1050.3,669.1,1056.4,663.8,1059.1z"/>
			<path class="st2" d="M689.1,1054.2l-42,50.8c-3.6,4.4-10.5,5.3-15.4,2l-3.5-2.4c-4.9-3.2-5.9-9.5-2.3-13.8l42-50.8
				c3.6-4.4,10.5-5.3,15.4-2l3.5,2.4C691.7,1043.7,692.7,1049.9,689.1,1054.2z"/>
		</g>
		<g>
			<path class="st2" d="M457.8,488.2c-95.7-15.8-246.2-36.9-252.2-11.9c-5.6,23.6,119.8,79.2,211.2,116.6"/>
			<path class="st2" d="M254.6,479.6L254.6,479.6c-6-0.5-10.5-5.3-10-10.7l4.2-42.6c0.5-5.4,5.9-9.5,11.9-9h0
				c6,0.5,10.5,5.3,10,10.7l-4.2,42.6C266,476,260.6,480,254.6,479.6z"/>
			<path class="st2" d="M246,472.8L246,472.8c-3.7,3.3-9.7,3.3-13.4,0L190,434.5c-3.7-3.3-3.7-8.7,0-12h0c3.7-3.3,9.7-3.3,13.4,0
				l42.6,38.3C249.7,464.1,249.7,469.5,246,472.8z"/>
			<path class="st2" d="M234.7,481.2L234.7,481.2c-2.6,4-8.4,5.4-12.9,3.1l-52.2-27.1c-4.5-2.3-6.1-7.6-3.5-11.6l0,0
				c2.6-4,8.4-5.4,12.9-3.1l52.2,27.1C235.7,472,237.3,477.2,234.7,481.2z"/>
			<path class="st2" d="M230.6,489.2L230.6,489.2c-0.9,4.6-5.8,7.7-10.9,6.9l-59.4-9.1c-5.1-0.8-8.6-5.2-7.7-9.8l0,0
				c0.9-4.6,5.8-7.7,10.9-6.9l59.4,9.1C228,480.2,231.5,484.6,230.6,489.2z"/>
		</g>
		<path class="st4" d="M431.1,384.5c16.6,0,45.5,0,61.6-4c48.4-11.9,79.1-47.5,79.1-47.5s-1.2,135.7,4.4,177.9
			c5,37.9,28.4,112.6,35.2,150.3c8.5,47.3,22,142.4-30.8,189.8c-17.3,15.5-72.4,13.1-96.7,11.9c-22.6-1.1-50.1-19.2-66-35.6
			c-30.8-31.6-57.2-83-61.6-122.6c-6.2-55.6,13.2-87,30.8-114.7c6.4-10,26.3-35.9,35.2-47.5c10.7-13.9,30.8-41.1,30.8-59.3
			c0-19.8-11.9-48-17.6-63.3c-4.4-11.9-20.5-34.8-26.4-39.5C408.6,380.2,413.5,384.5,431.1,384.5z"/>
		<g>
			<path class="st5" d="M571.7,383.9l-141.2,26c2.1,3.8,3.9,7.3,5,10.2c0.7,1.8,1.4,3.8,2.2,5.9l134.2-19.6
				C571.8,398.6,571.8,391,571.7,383.9z"/>
			<path class="st5" d="M572.8,449.7l-122.4,10.4c1.6,6.5,2.6,12.8,2.7,18.5l120.8-2C573.4,468.3,573.1,459.2,572.8,449.7z"/>
			<path class="st5" d="M582.8,545.2c-2.5-10.8-4.5-20.7-5.9-29.2l-132.5-6.4c-4.1,7.6-9.1,15.2-13.8,21.7L582.8,545.2z"/>
			<path class="st5" d="M599.3,609.9c-2-7.6-4-15.4-6.1-23.3L401.5,570c-6,8.1-11.6,15.7-14.4,20.2c-4,6.3-8.1,12.8-12,19.8H599.3z"
				/>
			<path class="st5" d="M611.4,657.4c-0.8-4.6-1.9-9.8-3.2-15.3l-250.5,10.4c-1.9,10.3-2.9,21.8-2.4,34.5L613,666.5
				C612.4,663.3,611.9,660.2,611.4,657.4z"/>
			<path class="st5" d="M381.9,777.8l237.2-24.1c0.6-12.2,0.4-24.4-0.4-36l-255.5,17.4C367.7,749.2,374.1,763.8,381.9,777.8z"/>
			<path class="st5" d="M417.9,827.4c7,7.2,16.2,14.7,26.3,21l152.1-15.4c7.8-11.6,13.2-24.7,16.9-38.6L402,808.8
				C407.1,815.5,412.4,821.8,417.9,827.4z"/>
		</g>
		<path class="st2" d="M907.2,450.2l-3.2-8.7c-0.9-2.4-3.7-3.7-6.3-2.9l-39,11.6l25.5-21c2-1.7,2.2-4.6,0.3-6.4l-6.9-6.8
			c-1.9-1.8-5.1-2-7.1-0.3l-40.1,33l-7.9-36.3c-0.9-4.3-5.6-7.1-10.3-6.2l-2.4,0.4c-4.7,0.8-7.9,5-6.9,9.3l7.5,34.7
			c-35.5,4.2-98.8,17-168.6,35.1l23.9,116.3c88.5-49.5,147.6-87,177.3-112.5c0,0,0.1,0,0.1,0l55.2-3.2c2.8-0.2,4.9-2.3,4.7-4.8
			l-0.6-9.2c-0.2-2.5-2.6-4.4-5.3-4.2l-35.6,2c0.5-0.7,0.9-1.4,1.2-2l41.2-12.2C906.6,455.1,908.1,452.5,907.2,450.2z"/>
		<g>
			<ellipse class="st6" cx="576.2" cy="91.9" rx="57.2" ry="51.4"/>
		</g>
		<ellipse class="st7" cx="593.8" cy="93.9" rx="17.6" ry="21.7"/>
		<g>
			<ellipse class="st6" cx="409.1" cy="80" rx="57.2" ry="51.4"/>
		</g>
		<ellipse class="st7" cx="417.9" cy="86" rx="17.6" ry="21.7"/>
		
			<ellipse transform="matrix(0.9923 -0.1241 0.1241 0.9923 -16.2475 22.8312)" class="st7" cx="175.2" cy="141.9" rx="8.1" ry="14.1"/>
		
			<ellipse transform="matrix(0.6433 -0.7656 0.7656 0.6433 -82.3129 99.1877)" class="st7" cx="65.3" cy="137.9" rx="14.7" ry="7.8"/>
		<path class="st8" d="M26.6,250.1c60.4-22.4,171.5,11.9,255,19.8c70,6.6,202.3,23.7,241.8-47.5"/>
		<path class="st9" d="M261.6,145.8c4.7,1.1,8.9,3.4,13.1,5.6c5.4,2.9,10.7,5.9,15.3,9.6c4.6,3.8,8.5,8.5,10.2,13.9"/>
		<path class="st9" d="M287,142.7c6,2.6,11.7,5.9,16.9,9.7c4.6,3.4,8.9,7.3,10.9,12.4"/>
		<path class="st3" d="M264.6,146.2c22.2,7.2,41.3,27.4,48.5,51.7"/>
		<path class="st3" d="M293.3,140c22.8,5.6,43.4,24.6,52.7,48.3"/>
		<path class="st10" d="M490.1,205.9c3.1,0.2,34.5,3.2,53.4,25.1c2.2,2.6,4.6,5.8,6.6,9.6"/>
	</g>
</g>
</svg>
